<svg width="32" height="32" viewBox="0 0 32 32" fill="none" xmlns="http://www.w3.org/2000/svg">
  <rect width="32" height="32" fill="#0B1437" rx="8"/>
  <g transform="translate(2, 2) scale(0.467)">
    <ellipse cx="28" cy="34" rx="18" ry="13" fill="#1e3a8a"/>
    <path d="M12 28 Q18 18 28 20 Q38 18 44 28 Q38 26 28 27 Q18 26 12 28Z" fill="#2563eb"/>
    <path d="M26 20 Q30 10 38 14 Q34 18 30 21Z" fill="#93c5fd"/>
    <path d="M44 38 Q52 32 56 26 Q52 30 48 34 Q54 26 56 18 Q50 24 46 32Z" fill="#1d4ed8"/>
    <ellipse cx="22" cy="27" rx="4" ry="3.5" fill="#dbeafe"/>
    <circle cx="22.5" cy="27" r="2" fill="#1e3a8a"/>
    <circle cx="23.5" cy="25.8" r="0.8" fill="#ffffff"/>
  </g>
</svg>
