<svg width="192" height="192" viewBox="0 0 192 192" fill="none" xmlns="http://www.w3.org/2000/svg">
  <rect width="192" height="192" fill="#0B1437" rx="40"/>
  <g transform="translate(36, 36) scale(2)">
    <ellipse cx="28" cy="34" rx="18" ry="13" fill="#1e3a8a"/>
    <path d="M12 28 Q18 18 28 20 Q38 18 44 28 Q38 26 28 27 Q18 26 12 28Z" fill="#2563eb"/>
    <path d="M26 20 Q30 10 38 14 Q34 18 30 21Z" fill="#93c5fd"/>
    <path d="M13 34 Q8 38 10 44 Q14 40 16 36Z" fill="#1e3a8a"/>
    <path d="M42 34 Q46 37 45 42 Q42 39 40 36Z" fill="#1e3a8a"/>
    <path d="M44 38 Q52 32 56 26 Q52 30 48 34 Q54 26 56 18 Q50 24 46 32Z" fill="#1d4ed8"/>
    <ellipse cx="22" cy="27" rx="4" ry="3.5" fill="#dbeafe"/>
    <circle cx="22.5" cy="27" r="2" fill="#1e3a8a"/>
    <circle cx="23.5" cy="25.8" r="0.8" fill="#ffffff"/>
    <rect x="10" y="36" width="14" height="10" rx="1.5" fill="#ffffff"/>
    <line x1="17" y1="36" x2="17" y2="46" stroke="#cbd5e1" stroke-width="0.8"/>
    <path d="M10 37 Q13.5 34 17 37" stroke="#cbd5e1" stroke-width="0.7" fill="none" stroke-linecap="round"/>
    <path d="M17 37 Q20.5 34 24 37" stroke="#cbd5e1" stroke-width="0.7" fill="none" stroke-linecap="round"/>
  </g>
</svg>
